<svg class="wr-root" data-descriptions-version="2.38.1" data-theme="light" data-view="design" height="419.25" text-rendering="geometricPrecision" viewBox="-80 -224 704 419.25" width="704" xmlns="http://www.w3.org/2000/svg" xmlns:xlink="http://www.w3.org/1999/xlink"><style>.wr-root { font-family: InterVariable, Inter, -apple-system, BlinkMacSystemFont, 'Segoe UI', Roboto, Helvetica, Arial, sans-serif; }
.wr-not-run { opacity: 0.45; }
.wr-edge { stroke-linecap: round; }</style><defs><pattern height="16" id="wr-dots" patternTransform="translate(-9,-9)" patternUnits="userSpaceOnUse" width="16"><circle class="wr-dot" cx="0.5" cy="0.5" fill="#828282" r="0.5"/></pattern><marker class="wr-arrow wr-arrow-main" id="wr-arrow-main" markerHeight="12.5" markerUnits="userSpaceOnUse" markerWidth="12.5" orient="auto-start-reverse" refX="0" refY="0" viewBox="-10 -10 20 20"><polyline fill="#cacaca" points="-5,-4 0,0 -5,4 -5,-4" stroke="#cacaca" stroke-linecap="round" stroke-linejoin="round" stroke-width="2"/></marker><marker class="wr-arrow wr-arrow-ran" id="wr-arrow-ran" markerHeight="12.5" markerUnits="userSpaceOnUse" markerWidth="12.5" orient="auto-start-reverse" refX="0" refY="0" viewBox="-10 -10 20 20"><polyline fill="#29a360" points="-5,-4 0,0 -5,4 -5,-4" stroke="#29a360" stroke-linecap="round" stroke-linejoin="round" stroke-width="2"/></marker><marker class="wr-arrow wr-arrow-error" id="wr-arrow-error" markerHeight="12.5" markerUnits="userSpaceOnUse" markerWidth="12.5" orient="auto-start-reverse" refX="0" refY="0" viewBox="-10 -10 20 20"><polyline fill="#ea1f30" points="-5,-4 0,0 -5,4 -5,-4" stroke="#ea1f30" stroke-linecap="round" stroke-linejoin="round" stroke-width="2"/></marker></defs><rect class="wr-canvas-bg" fill="#f5f5f5" height="419.25" width="704" x="-80" y="-224"/><rect class="wr-canvas-dots" fill="url(#wr-dots)" height="2096.25" width="3520" x="-1488" y="-1062.5"/><g class="wr-layer-stickies"><g class="wr-sticky" data-sticky-name="Sticky Note"><clipPath id="wr-sticky-clip-0"><rect height="144" rx="8" width="304" x="0" y="-192"/></clipPath><rect class="wr-sticky-halo" fill="none" height="150" rx="7" stroke="none" stroke-width="6" width="310" x="-3" y="-195"/><rect class="wr-sticky-bg wr-sticky-4" fill="#d6f5e3" height="144" rx="4" stroke="#85e0ac" stroke-width="1" width="304" x="0" y="-192"/><g clip-path="url(#wr-sticky-clip-0)"><text class="wr-sticky-text" fill="#2b2b2b" font-size="18" font-weight="600" x="13" y="-165"><tspan font-weight="600">Demo</tspan></text><text class="wr-sticky-text" fill="#2b2b2b" font-size="14" font-weight="400" x="13" y="-145.6"><tspan>Linear</tspan><tspan> </tspan><tspan font-weight="600">flow</tspan></text></g></g></g><g class="wr-layer-edges"><path class="wr-edge wr-edge-main" d="M 96 48 C 160 48, 160 48, 216 48" data-from="When clicking 'Execute workflow'" data-to="HTTP Request" fill="none" marker-end="url(#wr-arrow-main)" stroke="#cacaca" stroke-width="2"/><path class="wr-edge wr-edge-main" d="M 320 48 C 384 48, 384 48, 440 48" data-from="HTTP Request" data-to="Extract Emails" fill="none" marker-end="url(#wr-arrow-main)" stroke="#cacaca" stroke-width="2"/></g><g class="wr-layer-edge-labels"/><g class="wr-layer-nodes"><g class="wr-node" data-node-name="When clicking 'Execute workflow'" data-node-type="n8n-nodes-base.manualTrigger"><path class="wr-tile-halo" d="M 36 -3 H 88 A 11 11 0 0 1 99 8 V 88 A 11 11 0 0 1 88 99 H 36 A 39 39 0 0 1 -3 60 V 36 A 39 39 0 0 1 36 -3 Z" fill="none" stroke="none" stroke-width="6"/><path class="wr-tile" d="M 36 1.5 H 88 A 6.5 6.5 0 0 1 94.5 8 V 88 A 6.5 6.5 0 0 1 88 94.5 H 36 A 34.5 34.5 0 0 1 1.5 60 V 36 A 34.5 34.5 0 0 1 36 1.5 Z" fill="#ffffff"/><path class="wr-tile-border" d="M 36 0.75 H 88 A 7.25 7.25 0 0 1 95.25 8 V 88 A 7.25 7.25 0 0 1 88 95.25 H 36 A 35.25 35.25 0 0 1 0.75 60 V 36 A 35.25 35.25 0 0 1 36 0.75 Z" fill="none" stroke="rgba(0,0,0,0.1)" stroke-width="1.5"/><svg viewBox="0 0 24 24" fill="none" xmlns="http://www.w3.org/2000/svg" class="wr-icon" preserveAspectRatio="xMidYMid meet" x="28" y="28" width="40" height="40">
<path d="M20.5204 14.248L21.0507 14.7783L21.9223 13.9067L20.7476 13.5332L20.5204 14.248ZM18.3466 16.4218L17.8162 15.8914L17.2859 16.4218L17.8162 16.9521L18.3466 16.4218ZM21.021 19.0962L21.5513 19.6265L22.0817 19.0962L21.5513 18.5659L21.021 19.0962ZM19.0965 21.0207L18.5662 21.551L19.0965 22.0814L19.6268 21.551L19.0965 21.0207ZM16.422 18.3463L16.9524 17.8159L16.422 17.2856L15.8917 17.8159L16.422 18.3463ZM14.2476 20.5208L13.5328 20.748L13.9063 21.9227L14.7779 21.0511L14.2476 20.5208ZM11.3231 11.3235L11.5504 10.6088L10.1692 10.1696L10.6084 11.5508L11.3231 11.3235ZM20.5204 14.248L19.99 13.7176L17.8162 15.8914L18.3466 16.4218L18.8769 16.9521L21.0507 14.7783L20.5204 14.248ZM18.3466 16.4218L17.8162 16.9521L20.4907 19.6265L21.021 19.0962L21.5513 18.5659L18.8769 15.8914L18.3466 16.4218ZM21.021 19.0962L20.4907 18.5659L18.5662 20.4904L19.0965 21.0207L19.6268 21.551L21.5513 19.6265L21.021 19.0962ZM19.0965 21.0207L19.6268 20.4904L16.9524 17.8159L16.422 18.3463L15.8917 18.8766L18.5662 21.551L19.0965 21.0207ZM16.422 18.3463L15.8917 17.8159L13.7172 19.9904L14.2476 20.5208L14.7779 21.0511L16.9524 18.8766L16.422 18.3463ZM14.2476 20.5208L14.9623 20.2935L12.0379 11.0963L11.3231 11.3235L10.6084 11.5508L13.5328 20.748L14.2476 20.5208ZM11.3231 11.3235L11.0959 12.0383L20.2931 14.9627L20.5204 14.248L20.7476 13.5332L11.5504 10.6088L11.3231 11.3235Z" fill="currentColor"/>
<path d="M7.6249 19.5793C5.00958 18.0664 3.25 15.2387 3.25 12C3.25 7.16751 7.16751 3.25 12 3.25C15.2231 3.25 18.0391 4.99263 19.5574 7.5871" stroke="currentColor" stroke-width="1.5"/>
<path d="M9.62446 16.1142C8.20498 15.2928 7.25 13.7579 7.25 12C7.25 9.37665 9.37665 7.25 12 7.25C13.7524 7.25 15.2832 8.19898 16.1064 9.61107" stroke="currentColor" stroke-width="1.5"/>
</svg><text class="wr-node-name" fill="#2b2b2b" font-size="16" font-weight="500" text-anchor="middle" x="48" y="118">When clicking 'Execute</text><text class="wr-node-name" fill="#2b2b2b" font-size="16" font-weight="500" text-anchor="middle" x="48" y="138">workflow'</text></g><g class="wr-node" data-node-name="HTTP Request" data-node-type="n8n-nodes-base.httpRequest"><path class="wr-tile-halo" d="M 232 -3 H 312 A 11 11 0 0 1 323 8 V 88 A 11 11 0 0 1 312 99 H 232 A 11 11 0 0 1 221 88 V 8 A 11 11 0 0 1 232 -3 Z" fill="none" stroke="none" stroke-width="6"/><path class="wr-tile" d="M 232 1.5 H 312 A 6.5 6.5 0 0 1 318.5 8 V 88 A 6.5 6.5 0 0 1 312 94.5 H 232 A 6.5 6.5 0 0 1 225.5 88 V 8 A 6.5 6.5 0 0 1 232 1.5 Z" fill="#ffffff"/><path class="wr-tile-border" d="M 232 0.75 H 312 A 7.25 7.25 0 0 1 319.25 8 V 88 A 7.25 7.25 0 0 1 312 95.25 H 232 A 7.25 7.25 0 0 1 224.75 88 V 8 A 7.25 7.25 0 0 1 232 0.75 Z" fill="none" stroke="rgba(0,0,0,0.1)" stroke-width="1.5"/><svg viewBox="0 0 24 24" fill="none" xmlns="http://www.w3.org/2000/svg" class="wr-icon" preserveAspectRatio="xMidYMid meet" x="252" y="28" width="40" height="40">
<circle cx="12" cy="12" r="8.75" stroke="currentColor" stroke-width="1.5"/>
<ellipse cx="12" cy="12" rx="3.75" ry="8.75" stroke="currentColor" stroke-width="1.5"/>
<path d="M3 12H21" stroke="currentColor" stroke-width="1.5"/>
</svg><text class="wr-node-subtitle" fill="#949494" font-size="13" text-anchor="middle" x="272" y="139.19">GET: https://api.example.com…</text><text class="wr-node-name" fill="#2b2b2b" font-size="16" font-weight="500" text-anchor="middle" x="272" y="118">HTTP Request</text></g><g class="wr-node" data-node-name="Extract Emails" data-node-type="n8n-nodes-base.set"><path class="wr-tile-halo" d="M 456 -3 H 536 A 11 11 0 0 1 547 8 V 88 A 11 11 0 0 1 536 99 H 456 A 11 11 0 0 1 445 88 V 8 A 11 11 0 0 1 456 -3 Z" fill="none" stroke="none" stroke-width="6"/><path class="wr-tile" d="M 456 1.5 H 536 A 6.5 6.5 0 0 1 542.5 8 V 88 A 6.5 6.5 0 0 1 536 94.5 H 456 A 6.5 6.5 0 0 1 449.5 88 V 8 A 6.5 6.5 0 0 1 456 1.5 Z" fill="#ffffff"/><path class="wr-tile-border" d="M 456 0.75 H 536 A 7.25 7.25 0 0 1 543.25 8 V 88 A 7.25 7.25 0 0 1 536 95.25 H 456 A 7.25 7.25 0 0 1 448.75 88 V 8 A 7.25 7.25 0 0 1 456 0.75 Z" fill="none" stroke="rgba(0,0,0,0.1)" stroke-width="1.5"/><svg viewBox="0 0 24 24" fill="none" xmlns="http://www.w3.org/2000/svg" class="wr-icon" preserveAspectRatio="xMidYMid meet" x="476" y="28" width="40" height="40">
<path d="M12.2676 4.34277L11.1113 5.5H5.75C5.33579 5.5 5 5.83579 5 6.25V18.25C5 18.6642 5.33579 19 5.75 19H17.75C18.1642 19 18.5 18.6642 18.5 18.25V12.8887L19.6562 11.7324H20V18.25C20 19.4926 18.9926 20.5 17.75 20.5H5.75C4.50736 20.5 3.5 19.4926 3.5 18.25V6.25C3.5 5.00736 4.50736 4 5.75 4H12.2676V4.34277Z" fill="currentColor"/>
<path d="M17.1893 3.31066C17.7751 2.72487 18.7249 2.72487 19.3107 3.31066L20.6893 4.68934C21.2751 5.27513 21.2751 6.22487 20.6893 6.81066L12.6893 14.8107C12.408 15.092 12.0265 15.25 11.6287 15.25H8.75V12.3713C8.75 11.9735 8.90804 11.592 9.18934 11.3107L17.1893 3.31066Z" stroke="currentColor" stroke-width="1.5"/>
<path d="M15.75 4.75L19.25 8.25" stroke="currentColor" stroke-width="1.5"/>
</svg><text class="wr-node-subtitle" fill="#949494" font-size="13" text-anchor="middle" x="496" y="139.19">manual</text><text class="wr-node-name" fill="#2b2b2b" font-size="16" font-weight="500" text-anchor="middle" x="496" y="118">Extract Emails</text></g></g><g class="wr-layer-ports"><circle class="wr-port" cx="96" cy="48" data-node="When clicking 'Execute workflow'" fill="#ffffff" r="8" stroke="#989898"/><circle class="wr-port" cx="320" cy="48" data-node="HTTP Request" fill="#ffffff" r="8" stroke="#989898"/><circle class="wr-port" cx="224" cy="48" data-node="HTTP Request" fill="#ffffff" r="8" stroke="#989898"/><circle class="wr-port" cx="544" cy="48" data-node="Extract Emails" fill="#ffffff" r="8" stroke="#989898"/><circle class="wr-port" cx="448" cy="48" data-node="Extract Emails" fill="#ffffff" r="8" stroke="#989898"/></g></svg>